<?xml version="1.0" encoding="UTF-8"?><svg id="Livello_2" xmlns="http://www.w3.org/2000/svg" viewBox="0 0 178.12 178.11"><defs><style>.cls-1{fill:#fff;}</style></defs><g id="Livello_1-2"><g><path class="cls-1" d="M89.07,178.11C39.97,178.11,.02,138.16,.02,89.05c0-5.17,4.2-9.37,9.37-9.37s9.37,4.2,9.37,9.37c0,38.77,31.54,70.31,70.31,70.31s70.31-31.54,70.31-70.31S127.84,18.74,89.07,18.74c-5.17,0-9.37-4.2-9.37-9.37S83.9,0,89.07,0c49.1,0,89.05,39.95,89.05,89.05s-39.95,89.05-89.05,89.05Z"/><path class="cls-1" d="M34.35,68.98C15.41,68.98,0,53.57,0,34.63S15.41,.28,34.35,.28s34.35,15.41,34.35,34.35-15.41,34.35-34.35,34.35Zm0-50.7c-9.01,0-16.35,7.33-16.35,16.35s7.33,16.35,16.35,16.35,16.35-7.33,16.35-16.35-7.33-16.35-16.35-16.35Z"/><path class="cls-1" d="M89.07,144.91c-22.89,0-43.22-13.74-51.79-34.99-1.93-4.8,.39-10.26,5.19-12.19,4.8-1.93,10.26,.39,12.19,5.19,5.7,14.13,19.2,23.26,34.41,23.26s28.71-9.13,34.41-23.26c1.93-4.8,7.4-7.12,12.19-5.19,4.8,1.93,7.12,7.39,5.19,12.19-8.57,21.26-28.9,34.99-51.79,34.99Z"/></g></g></svg>