<?xml version="1.0" encoding="UTF-8"?><svg id="Livello_2" xmlns="http://www.w3.org/2000/svg" viewBox="0 0 178.45 178.11"><defs><style>.cls-1{fill:none;stroke:#496492;stroke-linecap:round;stroke-miterlimit:10;stroke-width:18.74px;}.cls-2{fill:#aa5260;}</style></defs><g id="Livello_1-2"><g><path class="cls-1" d="M89.4,9.37c44.01,0,79.68,35.68,79.68,79.68s-35.68,79.68-79.68,79.68S9.71,133.06,9.71,89.05"/><path class="cls-2" d="M60,25.31h-15.94V9.37C44.05,4.2,39.86,0,34.68,0s-9.37,4.2-9.37,9.37v15.94H9.37c-5.17,0-9.37,4.2-9.37,9.37s4.2,9.37,9.37,9.37h15.94v15.94c0,5.17,4.2,9.37,9.37,9.37s9.37-4.2,9.37-9.37v-15.94h15.94c5.17,0,9.37-4.2,9.37-9.37s-4.2-9.37-9.37-9.37Z"/><path class="cls-1" d="M46.3,106.41c6.88,17.07,23.57,29.13,43.1,29.13s36.22-12.06,43.1-29.13"/></g></g></svg>